<?xml version="1.0" encoding="UTF-8" standalone="no"?>
<!-- Created with Inkscape (http://www.inkscape.org/) -->

<svg
   xmlns:dc="http://purl.org/dc/elements/1.1/"
   xmlns:cc="http://creativecommons.org/ns#"
   xmlns:rdf="http://www.w3.org/1999/02/22-rdf-syntax-ns#"
   xmlns:svg="http://www.w3.org/2000/svg"
   xmlns="http://www.w3.org/2000/svg"
   xmlns:sodipodi="http://sodipodi.sourceforge.net/DTD/sodipodi-0.dtd"
   xmlns:inkscape="http://www.inkscape.org/namespaces/inkscape"
   version="1.1"
   id="svg10"
   width="946.47888"
   height="574.64789"
   viewBox="0 0 946.47888 574.64789"
   sodipodi:docname="Полировка.svg"
   inkscape:version="0.92.1 r15371">
  <metadata
     id="metadata16">
    <rdf:RDF>
      <cc:Work
         rdf:about="">
        <dc:format>image/svg+xml</dc:format>
        <dc:type
           rdf:resource="http://purl.org/dc/dcmitype/StillImage" />
        <dc:title></dc:title>
      </cc:Work>
    </rdf:RDF>
  </metadata>
  <defs
     id="defs14" />
  <sodipodi:namedview
     pagecolor="#ffffff"
     bordercolor="#666666"
     borderopacity="1"
     objecttolerance="10"
     gridtolerance="10"
     guidetolerance="10"
     inkscape:pageopacity="0"
     inkscape:pageshadow="2"
     inkscape:window-width="1600"
     inkscape:window-height="850"
     id="namedview12"
     showgrid="false"
     inkscape:zoom="0.82320747"
     inkscape:cx="473.23944"
     inkscape:cy="301.55575"
     inkscape:window-x="-8"
     inkscape:window-y="-8"
     inkscape:window-maximized="1"
     inkscape:current-layer="svg10" />
  <path
     style="fill:#d2423b;stroke-width:3.38028169"
     d="m 576.07312,556.61254 c -3.96172,-2.49708 -5.43998,-13.38811 -6.76056,-49.80737 l -1.69014,-46.61148 -21.97183,-1.92855 c -41.31106,-3.62603 -43.94365,-8.08056 -43.94365,-74.35579 v -47.88769 l 27.39873,-65.36106 c 15.06929,-35.94858 29.23909,-67.87792 31.48843,-70.9541 2.24938,-3.07617 11.59599,-7.44922 20.77031,-9.71789 l 16.68055,-4.12486 14.59483,-45.37024 c 23.39527,-72.727738 27.13904,-80.673398 47.77167,-101.389569 21.70982,-21.797736 35.82821,-26.797575 75.6701,-26.797575 27.13437,0 29.34017,1.487329 29.23559,19.713084 -0.0835,14.535732 -3.50278,16.605512 -33.39404,20.213922 -34.05749,4.11134 -42.66091,9.50008 -55.22522,34.59022 -10.67178,21.310928 -33.62799,94.157298 -31.0079,98.396678 0.97241,1.57341 27.37467,2.86075 58.67169,2.86075 48.7704,0 57.1969,0.76423 58.95542,5.34688 2.67908,6.98157 2.67908,252.74719 0,259.72876 -1.65887,4.32297 -7.8287,5.34689 -32.21875,5.34689 -23.48417,0 -30.59128,1.10569 -32.08232,4.99126 -1.05343,2.74519 -2.14651,23.40351 -2.4291,45.90737 -0.45529,36.2571 -1.26095,41.46233 -7.07537,45.71297 -4.98673,3.64556 -18.77892,4.78441 -57.46479,4.7451 -27.99678,-0.027 -53.18491,-1.48993 -55.97365,-3.24771 z M 677.90938,336.75089 c 25.89584,-7.19305 38.61922,-31.54714 28.78168,-55.09167 -8.74746,-20.93559 -21.42906,-25.94528 -65.71538,-25.95993 -42.85538,-0.0142 -54.67436,3.7583 -63.15519,20.1584 -2.8202,5.45367 -5.12765,16.05182 -5.12765,23.55143 0,16.96998 13.32497,33.29096 30.47118,37.32232 16.96719,3.98927 60.41277,4.0006 74.74536,0.0196 z M 219.17752,468.198 c -1.36465,-2.20804 3.19784,-8.49658 10.78642,-14.86702 l 13.15144,-11.04037 1.19452,-42.66548 c 0.65698,-23.46602 0.28695,-46.28153 -0.8223,-50.70115 -1.10925,-4.41958 -7.35101,-11.18288 -13.87058,-15.02952 -8.71777,-5.14361 -11.85376,-9.31853 -11.85376,-15.78082 0,-9.47072 5.55539,-22.11376 11.37859,-25.8956 6.39763,-4.15489 12.72299,4.47616 10.54562,14.38965 -2.9106,13.25189 4.19364,15.9223 14.05784,5.2842 8.063,-8.69558 8.45826,-8.76235 20.76659,-3.50814 6.90092,2.94589 15.82191,6.65105 19.82441,8.2337 10.65935,4.21486 11.82259,8.01293 6.41671,20.95101 -7.20146,17.23552 -13.0727,20.99375 -25.84264,16.54212 -5.82986,-2.03229 -11.94615,-2.86296 -13.59174,-1.84594 -1.6456,1.01706 -2.992,20.06177 -2.992,42.32164 0,44.83447 -3.56803,58.25642 -18.63779,70.11029 -10.3474,8.13928 -16.94856,9.26613 -20.51133,3.50143 z M 426.43347,364.89862 c -31.3419,-14.55239 -34.27822,-20.38341 -22.70609,-45.09041 6.76617,-14.44605 7.17485,-17.66019 3.4033,-26.7655 -4.1491,-10.01686 -3.35537,-33.6783 1.85009,-55.15124 1.77556,-7.32428 1.21014,-8.93956 -2.61546,-7.47155 -2.68441,1.03011 -12.37298,-1.52693 -21.53013,-5.6823 -9.15715,-4.15537 -17.87756,-7.63824 -19.37867,-7.73971 -1.50111,-0.10148 -11.67376,20.35071 -22.60588,45.4493 -10.93212,25.09859 -21.87295,46.88852 -24.31296,48.42206 -5.31776,3.3422 -50.22778,-15.04788 -54.92208,-22.48989 -2.2626,-3.58698 3.29877,-19.83976 19.46504,-56.88541 12.44797,-28.52501 22.61856,-53.76507 22.60132,-56.08901 -0.0172,-2.32394 -2.908,-4.22535 -6.42389,-4.22535 -4.85177,0 -9.85053,7.94367 -20.73954,32.95774 -33.29248,76.47902 -32.91386,75.79309 -41.18462,74.61434 -4.21882,-0.60127 -8.16946,-3.71113 -8.7792,-6.91082 -0.60973,-3.19968 7.6566,-25.85828 18.36962,-50.35244 12.37917,-28.30364 19.21754,-48.40552 18.76297,-55.15516 -0.4738,-7.03531 9.12453,-33.39831 28.43427,-78.098258 16.03223,-37.11287 30.82601,-69.537094 32.87508,-72.053836 2.39808,-2.94542 7.99113,-3.991757 15.69681,-2.936525 18.20675,2.493277 71.57192,29.765841 79.33051,40.542301 6.02796,8.37267 6.26846,10.52737 2.26384,20.28169 -2.46439,6.00258 -5.23994,15.09688 -6.16796,20.20956 -1.41817,7.813268 -0.51245,9.295768 5.67917,9.295768 8.83606,0 19.45427,5.16671 29.60167,14.40383 l 7.46836,6.79844 4.1397,-9.75606 c 5.69368,-13.41831 30.02444,-38.488458 37.35333,-38.488458 3.95016,0 9.50461,-6.92655 16.21612,-20.22193 13.00645,-25.765672 18.51022,-27.280584 49.15669,-13.530433 26.48282,11.882043 35.3805,18.664283 35.3805,26.968763 0,3.12935 -11.62286,32.175288 -25.8286,64.546518 -14.20573,32.37124 -43.09223,98.40609 -64.19222,146.74412 -21.10002,48.33803 -40.95096,89.78874 -44.11325,92.11268 -8.44005,6.20255 -13.54908,5.21158 -42.54784,-8.25282 z M 526.403,216.37155 c 34.67425,-79.2571 62.1219,-145.595938 60.99478,-147.419638 -2.77964,-4.49757 -37.07703,-19.46245 -44.60515,-19.46245 -4.72746,0 -19.62983,31.10531 -68.35432,142.673968 -34.26984,78.47067 -62.30884,144.25941 -62.30884,146.19717 0,4.66161 34.69937,22.11478 43.96733,22.11478 6.32984,0 15.35547,-18.49947 70.3062,-144.10383 z"
     id="path20"
     inkscape:connector-curvature="0" />
</svg>
