<?xml version="1.0" standalone="no"?>
<!DOCTYPE svg PUBLIC "-//W3C//DTD SVG 20010904//EN"
 "http://www.w3.org/TR/2001/REC-SVG-20010904/DTD/svg10.dtd">
<svg version="1.0" xmlns="http://www.w3.org/2000/svg"
 width="1280.000000pt" height="1280.000000pt" viewBox="0 0 1280.000000 1280.000000"
 preserveAspectRatio="xMidYMid meet">
<g transform="translate(0.000000,1280.000000) scale(0.100000,-0.100000)"
fill="#f44336" stroke="none">
<path d="M6134 10653 c-12 -2 -34 -18 -50 -34 l-29 -30 -5 -199 -5 -199 -28
-29 c-39 -40 -85 -56 -257 -87 -80 -14 -182 -35 -228 -45 -98 -23 -170 -25
-215 -6 -29 12 -38 26 -82 132 -95 233 -125 274 -201 274 -44 0 -487 -186
-519 -217 -49 -50 -45 -78 35 -275 65 -161 71 -181 61 -207 -19 -44 -86 -103
-211 -181 -63 -40 -148 -97 -188 -127 -86 -63 -149 -93 -199 -93 -32 0 -49 13
-172 134 -206 202 -197 203 -453 -52 -197 -198 -211 -218 -193 -289 4 -16 62
-84 141 -164 126 -128 134 -139 134 -175 -1 -53 -25 -102 -103 -210 -36 -50
-91 -134 -123 -185 -66 -109 -125 -175 -172 -195 -31 -14 -38 -13 -145 32
-261 107 -287 112 -340 59 -30 -31 -207 -453 -214 -510 -10 -83 29 -112 305
-223 63 -26 86 -40 97 -62 22 -42 18 -127 -9 -248 -14 -59 -34 -162 -46 -229
-23 -136 -45 -196 -85 -233 -26 -25 -30 -25 -225 -30 -193 -5 -199 -6 -224
-29 -43 -41 -48 -77 -44 -348 l3 -251 25 -28 c45 -48 75 -54 262 -54 142 0
178 -3 196 -16 40 -28 70 -105 92 -235 11 -68 32 -173 45 -234 32 -143 33
-225 3 -259 -15 -16 -85 -51 -188 -94 -247 -103 -248 -105 -130 -392 113 -276
119 -288 155 -310 52 -32 92 -25 262 45 86 36 167 65 179 65 38 0 107 -62 159
-144 28 -43 91 -137 142 -210 100 -144 123 -190 123 -244 0 -31 -13 -48 -134
-171 -201 -204 -201 -198 42 -444 98 -98 189 -185 204 -193 32 -17 91 -18 121
-3 12 6 81 69 153 140 72 71 137 129 146 129 45 0 126 -37 209 -97 52 -36 144
-97 204 -136 126 -79 180 -127 195 -173 10 -28 4 -48 -60 -202 -38 -93 -70
-180 -70 -192 0 -48 31 -90 89 -119 70 -36 394 -171 439 -183 42 -12 95 5 120
37 11 13 47 93 82 177 35 84 72 163 83 175 34 38 102 39 257 4 74 -17 188 -39
254 -50 65 -11 138 -30 163 -42 72 -35 76 -46 80 -252 6 -287 -8 -277 367
-277 l266 0 38 34 37 34 5 199 c3 109 9 205 13 214 17 35 103 69 228 90 68 11
183 34 254 51 134 31 202 33 244 6 20 -12 58 -87 126 -253 20 -49 42 -96 48
-104 20 -24 96 -53 120 -46 12 4 121 47 242 97 328 134 329 137 220 403 -36
86 -65 167 -65 179 0 45 58 104 178 178 64 40 159 104 212 142 101 73 187 111
228 101 14 -3 82 -62 151 -129 69 -68 136 -128 148 -135 12 -6 41 -11 64 -11
42 0 46 3 236 193 129 128 196 202 201 221 17 63 5 83 -134 228 -74 76 -136
148 -139 161 -10 38 28 128 88 208 30 41 81 115 112 165 107 166 126 192 164
218 20 14 47 26 60 26 13 0 94 -29 180 -65 263 -109 264 -108 402 225 138 333
140 325 -145 445 -71 30 -140 65 -153 77 -38 39 -40 102 -5 253 17 72 40 185
51 252 21 128 55 214 90 233 12 6 95 10 201 10 196 0 219 5 259 56 20 26 21
38 21 297 0 373 12 358 -286 367 -135 3 -196 9 -207 18 -30 25 -59 106 -78
221 -11 64 -33 177 -50 251 -35 155 -34 223 4 257 12 11 92 49 177 84 166 68
203 95 214 152 7 38 3 51 -87 267 -91 220 -114 266 -143 285 -54 35 -79 31
-266 -44 -195 -79 -195 -79 -262 -21 -20 18 -58 69 -86 115 -27 45 -89 138
-136 206 -79 112 -124 201 -124 245 0 9 58 76 129 148 70 72 134 142 141 155
16 32 15 82 -3 117 -8 16 -96 108 -194 205 -246 244 -240 243 -444 43 -149
-146 -154 -149 -237 -120 -22 8 -95 53 -162 100 -67 47 -159 108 -204 135
-104 63 -166 129 -166 176 0 12 29 92 65 178 38 93 65 171 65 192 0 51 -24 92
-68 114 -97 49 -456 191 -483 191 -38 0 -82 -22 -101 -52 -8 -13 -43 -91 -78
-175 -34 -84 -71 -160 -82 -170 -32 -29 -129 -29 -259 1 -63 14 -168 35 -234
46 -138 24 -218 57 -240 100 -12 22 -15 68 -15 200 0 188 -8 223 -58 257 -24
16 -54 18 -287 19 -143 1 -270 0 -281 -3z m645 -1089 c774 -90 1509 -476 2018
-1059 421 -482 673 -1033 769 -1680 21 -148 30 -535 15 -700 -14 -152 -42
-306 -56 -306 -5 0 -22 39 -37 88 -15 48 -48 124 -73 167 l-45 80 30 31 c16
17 30 39 30 49 0 24 -127 155 -210 216 -235 174 -556 246 -828 184 -35 -8 -80
-14 -102 -14 l-38 0 -110 224 c-120 244 -104 224 -204 242 -36 6 -37 5 -47
-33 -6 -21 -11 -45 -11 -53 0 -9 -7 -25 -15 -37 -16 -23 -106 -43 -211 -46
-57 -2 -61 0 -137 56 -108 80 -183 127 -203 127 -9 0 -96 -42 -193 -94 -203
-109 -338 -172 -348 -162 -4 3 13 68 37 144 83 263 120 387 126 424 5 26 -2
63 -25 131 -17 52 -31 102 -31 111 0 20 20 20 64 -1 46 -22 56 -13 96 88 35
85 36 86 120 91 l45 3 3 140 c2 77 4 177 5 221 2 99 -3 107 -111 158 -119 55
-262 65 -369 25 -46 -17 -99 -58 -112 -86 -7 -15 -23 -95 -37 -177 -13 -83
-28 -161 -34 -173 -5 -12 -22 -25 -37 -29 -112 -27 -252 -137 -409 -320 -148
-174 -188 -206 -395 -323 -249 -140 -342 -203 -419 -281 -115 -118 -159 -237
-138 -377 10 -72 10 -73 -22 -130 -18 -32 -44 -70 -58 -85 -24 -26 -31 -28
-108 -28 -85 0 -114 5 -114 22 0 5 17 35 39 66 63 94 81 136 81 194 0 58 -24
109 -60 128 -44 23 -132 28 -375 19 -834 -30 -830 -30 -860 -72 -34 -48 -21
-81 70 -182 47 -51 85 -98 85 -104 0 -5 -36 -31 -81 -58 -105 -62 -222 -176
-295 -288 l-60 -90 -76 -3 c-92 -3 -83 -22 -98 221 -11 192 -2 432 24 619 80
568 314 1108 676 1559 105 131 356 382 480 481 537 426 1137 655 1840 702 99
7 411 -5 539 -20z m1149 -2801 c31 -45 92 -171 92 -192 0 -10 -7 -21 -15 -25
-8 -3 -217 -8 -465 -12 -406 -7 -450 -6 -456 9 -3 9 9 43 30 79 63 112 43 107
195 54 143 -50 172 -54 191 -31 7 9 39 38 71 66 55 48 61 50 151 63 153 23
183 21 206 -11z m-628 -618 c0 -17 -25 -47 -174 -210 -148 -163 -206 -219
-216 -209 -5 5 -5 70 0 144 5 74 9 153 10 176 0 67 8 71 175 92 192 25 205 26
205 7z m350 -76 c0 -6 -11 -42 -25 -80 -40 -111 -58 -231 -57 -369 0 -69 5
-141 9 -160 8 -33 11 -35 57 -40 l49 -5 42 -101 c50 -122 82 -179 147 -261
126 -160 322 -286 519 -333 118 -28 344 -28 453 0 83 21 211 78 290 128 28 18
54 32 59 32 27 0 -175 -318 -308 -485 -107 -134 -346 -373 -475 -476 -432
-345 -923 -569 -1450 -662 -212 -38 -268 -42 -565 -42 -320 1 -397 8 -655 61
-721 148 -1392 569 -1854 1161 -120 154 -300 441 -321 513 -7 25 -7 24 26 -6
95 -88 292 -191 429 -224 113 -27 256 -35 349 -21 233 36 450 163 590 344 49
64 123 210 145 289 9 31 22 60 28 64 7 5 66 -48 154 -138 l142 -146 63 -7 c35
-3 318 -5 629 -3 506 3 568 5 596 20 16 9 59 52 95 95 35 43 134 150 219 238
85 88 256 265 378 393 123 127 228 232 233 232 5 0 9 -5 9 -11z m1114 -28
c113 -40 218 -143 267 -261 19 -46 23 -74 23 -170 1 -97 -3 -124 -22 -172 -97
-241 -396 -347 -636 -226 -166 84 -253 238 -244 433 3 82 8 101 40 167 36 71
104 158 126 158 10 0 84 -120 118 -192 16 -34 16 -39 0 -77 -9 -23 -16 -65
-16 -95 0 -118 122 -205 238 -171 93 28 144 115 127 218 -7 41 -45 88 -125
152 -32 26 -125 227 -116 251 6 15 17 16 84 11 42 -3 104 -15 136 -26z m-4401
-32 c35 -11 77 -31 92 -44 28 -21 28 -23 13 -46 -8 -13 -46 -56 -84 -96 l-69
-71 -50 10 c-87 18 -143 -8 -212 -99 -20 -27 -24 -28 -127 -31 -126 -4 -141 2
-132 59 16 97 93 216 175 269 111 71 268 91 394 49z m1723 -60 c7 -13 -132
-299 -167 -343 -27 -35 -35 -28 -98 83 -119 212 -132 238 -118 249 22 19 372
28 383 11z m-1465 -171 c30 -57 34 -72 37 -165 5 -118 -10 -176 -65 -261 -150
-227 -479 -262 -670 -72 -56 57 -113 160 -113 207 0 28 3 31 46 37 26 3 81 6
123 6 75 0 78 -1 111 -35 66 -68 172 -84 239 -34 46 34 75 100 68 156 -5 45
-4 46 75 134 44 50 87 89 97 89 12 0 30 -21 52 -62z"/>
</g>
</svg>
